<?xml version="1.0" encoding="UTF-8"?>
<svg version="1.1" xmlns="http://www.w3.org/2000/svg" width="512" height="512">
<path d="M0 0 C1.19367188 -0.01675781 2.38734375 -0.03351562 3.6171875 -0.05078125 C9.39497231 0.54758622 13.1547351 2.80168313 16.875 7.1875 C17.44734375 7.84492187 18.0196875 8.50234375 18.609375 9.1796875 C24.45040825 17.39928584 22.31088565 27.33709154 20.77582347 36.69240117 C20.41029572 38.8524124 20.03643634 41.01088886 19.66235352 43.16943359 C19.39719594 44.73914767 19.1328343 46.30899638 18.86920166 47.87896729 C18.15618347 52.11132705 17.43208576 56.341722 16.70584607 60.57183027 C15.9458245 65.00998407 15.196019 69.44986356 14.4450531 73.88955688 C13.1840098 81.33639697 11.91651497 88.78211364 10.64428711 96.22705078 C8.85056942 106.72369493 7.06791503 117.22219485 5.28777039 127.72114825 C2.90188225 141.78983534 0.51231237 155.8579036 -1.88905334 169.92395782 C-2.14849487 171.44408013 -2.40770248 172.96424238 -2.6666584 174.48444748 C-3.0203101 176.56009535 -3.37488072 178.63558411 -3.72972107 180.71102905 C-3.92790656 181.8720281 -4.12609205 183.03302715 -4.33028316 184.22920799 C-4.80789817 186.93267966 -5.32307832 189.62335012 -5.875 192.3125 C-4.74018188 192.30139694 -3.60536377 192.29029388 -2.43615723 192.27885437 C8.27461507 192.17735962 18.98528939 192.1024775 29.69643402 192.05343914 C35.20277498 192.02738006 40.70872675 191.99204891 46.21484375 191.93530273 C51.53168039 191.88085214 56.84814341 191.85105172 62.16523743 191.83811378 C64.1905963 191.82889737 66.21593544 191.81089966 68.24113464 191.78384972 C71.08502896 191.74738609 73.92739275 191.74256189 76.77148438 191.74487305 C78.01874298 191.71790848 78.01874298 191.71790848 79.29119873 191.69039917 C86.08714374 191.74989573 90.68265339 194.14459501 95.6543808 198.71995068 C99.74013145 203.17592202 100.8362533 207.76190414 101.5 213.625 C100.39707597 224.47041958 93.60334944 233.04636334 87.73291016 241.87304688 C84.91302891 246.15125116 82.17968916 250.48425652 79.4375 254.8125 C74.38957374 262.75936627 69.32652376 270.69637153 64.25 278.625 C63.58411865 279.66503174 62.9182373 280.70506348 62.23217773 281.77661133 C59.51646723 286.01764209 56.80021447 290.25832544 54.08398438 294.49902344 C47.08415357 305.42828947 40.0884587 316.36001388 33.125 327.3125 C26.15870716 338.2694438 19.15999968 349.20550601 12.15722656 360.13916016 C8.81195052 365.36283843 5.46853859 370.58770952 2.125 375.8125 C-1.89749344 382.09826129 -5.92040556 388.38375252 -9.9453125 394.66796875 C-16.26813236 404.54129515 -22.58452987 414.41852493 -28.875 424.3125 C-35.83671435 435.26224251 -42.8311788 446.19087422 -49.82958984 457.1171875 C-52.56726932 461.39395391 -55.30063053 465.67347376 -58.03417969 469.95288086 C-60.03126243 473.07614712 -62.03276841 476.19653922 -64.03515625 479.31640625 C-66.56012221 483.25112897 -69.06613341 487.19696124 -71.55859375 491.15234375 C-72.70551117 492.95586782 -73.85263554 494.7592603 -75 496.5625 C-75.50813232 497.37823486 -76.01626465 498.19396973 -76.53979492 499.03442383 C-80.45021937 505.1442588 -84.58284217 510.27249912 -91.875 512.3125 C-98.4841315 512.94942506 -105.39277763 513.48943133 -110.875 509.3125 C-115.42810736 504.83689234 -119.31082381 500.58547678 -120.17569542 494.03508282 C-120.21842114 485.09541664 -118.5256044 476.50449692 -116.87744141 467.7590332 C-116.55473269 466.00702 -116.2328823 464.25484852 -115.91181946 462.50253296 C-115.04248148 457.77178587 -114.16104595 453.04336729 -113.27720308 448.31531167 C-112.35181242 443.35421458 -111.43722834 438.39112534 -110.52133179 433.42826843 C-108.98264726 425.09931749 -107.43671732 416.77173896 -105.88574219 408.44506836 C-103.89741414 397.77024583 -101.92043566 387.09335533 -99.9472599 376.41572285 C-98.24704324 367.21531108 -96.54232811 358.01573378 -94.83652449 348.81635642 C-94.29000425 345.86836118 -93.74396059 342.92027791 -93.19792557 339.97219276 C-92.3386753 335.33497896 -91.47663612 330.69829149 -90.612463 326.06199265 C-90.29638654 324.3642547 -89.98113967 322.66636206 -89.66679955 320.96830177 C-89.23631093 318.64377448 -88.80270962 316.31984835 -88.36831665 313.99604797 C-88.24574104 313.33037428 -88.12316543 312.66470058 -87.99687541 311.97885495 C-87.13044678 307.36987116 -86.0442618 302.85169578 -84.875 298.3125 C-86.70877197 298.32915459 -86.70877197 298.32915459 -88.57958984 298.34614563 C-100.11447304 298.44761227 -111.64926539 298.52250916 -123.18449402 298.57156086 C-129.11455929 298.59762693 -135.04426356 298.63297129 -140.97412109 298.68969727 C-146.69943783 298.74412229 -152.42440787 298.77394303 -158.14996338 298.78688622 C-160.33161881 298.79610716 -162.5132558 298.81411368 -164.69476318 298.84115028 C-167.75655757 298.87757914 -170.81692916 298.88243944 -173.87890625 298.88012695 C-174.77586716 298.89810333 -175.67282806 298.91607971 -176.5969696 298.93460083 C-183.61048163 298.87748447 -188.31056743 296.68079127 -193.40187073 291.86964893 C-197.75504688 287.04335354 -199.41643692 281.97307843 -199.171875 275.4921875 C-198.00244601 266.90611679 -193.00990917 260.33723506 -187.98046875 253.54296875 C-184.18837186 248.41881802 -180.56932889 243.17584596 -176.9375 237.9375 C-175.89480957 236.4366687 -175.89480957 236.4366687 -174.83105469 234.90551758 C-170.56456515 228.76103047 -166.31776614 222.60338323 -162.08691406 216.43432617 C-156.08625359 207.69312824 -150.01518154 199.00066324 -143.95556641 190.30029297 C-140.59356104 185.4722923 -137.23435434 180.64234548 -133.875 175.8125 C-129.81787322 169.97944595 -125.76002713 164.14689808 -121.69921875 158.31640625 C-113.00736945 145.83502704 -113.00736945 145.83502704 -104.375 133.3125 C-96.56914662 121.93031849 -88.66080638 110.61901534 -80.77246094 99.29394531 C-73.80709749 89.2928145 -66.84563888 79.28992487 -59.95581055 69.23657227 C-55.70160559 63.03917677 -51.38283866 56.88743924 -47.06591797 50.73364258 C-43.47550074 45.61128125 -39.91105765 40.47250542 -36.375 35.3125 C-35.4962493 34.03504924 -34.61734006 32.75770751 -33.73828125 31.48046875 C-32.19936991 29.24409279 -30.66546866 27.00459437 -29.13818359 24.76025391 C-27.28762393 22.04293303 -25.42577487 19.33361326 -23.5625 16.625 C-22.70011719 15.34979492 -22.70011719 15.34979492 -21.8203125 14.04882812 C-16.00212441 5.63202934 -10.6989665 0.0345128 0 0 Z " fill="#4f46e5" transform="translate(304.875,-0.3125)"/>
</svg>
